# xmcd
#
# Track frame offsets:
#	150
#	28785
#	61265
#	88167
#	118195
#	147935
#	179512
#	201517
#	234932
#	272315
#
# Disc length: 4043
#
# Revision: 1
# Processed by: cddbd v1.5.1PL0 Copyright (c) Steve Scherf et al.
# Submitted via: CDex 1.51
# Normalized: r0:DSETVAR1,TDELIM( - )
#
DISCID=8e0fc90a
DTITLE=Various Artist - A Tribute to George Adams - New York Unit
DYEAR=1993
DGENRE=Jazz
TTITLE0=Ernest Gold - Exodus
TTITLE1=Eric Maschwitz, Manning sherwin - A nightingale sang in berkeley square
TTITLE2=Bart Howard - Fly me to the moon
TTITLE3=Kurt Weill - Moritat
TTITLE4=Thelonious Monk - Straight no chaser
TTITLE5=John Coltrane - Moments notice
TTITLE6=John Hicks - Gospel Blues
TTITLE7=David Porter, Isaac Hayes - when something is wrong with my baby
TTITLE8=John coltrane - Mister P.C.
TTITLE9=Hoagy Carmichael - Stewart Gorell - Georgia in my mind
EXTD=YEAR: 1993
EXTT0=
EXTT1=
EXTT2=
EXTT3=
EXTT4=
EXTT5=
EXTT6=
EXTT7=
EXTT8=
EXTT9=
PLAYORDER=
